name rise37.2698peak67.6939fall79.5734.mot
datacolumns 19
datarows 23
range 19.81826300000000 19.85492200000000
endheader
time	ground_force1_vx	ground_force1_vy	ground_force1_vz	ground_force1_px	ground_force1_py	ground_force1_pz	ground_force2_vx	ground_force2_vy	ground_force2_vz	ground_force2_px	ground_force2_py	ground_force2_pz	ground_torque1_x	ground_torque1_y	ground_torque1_z	ground_torque2_x	ground_torque2_y	ground_torque2_z	
19.81826300000000	-6.64837700000000	40.62295600000000	-12.38023300000000	0.33795300000000	0.00000000000000	0.08414900000000	-53.69324400000000	814.20467499999995	-45.14525000000000	0.14109900000000	0.00000000000000	-0.07755700000000	0.00000000000000	-8.76996600000000	0.00000000000000	0.00000000000000	-18.89730100000000	0.00000000000000	
19.81992600000000	-7.30136600000000	47.28706700000000	-13.93048500000000	0.34260200000000	0.00000000000000	0.08503500000000	-54.60744900000000	811.49551399999996	-44.86673600000000	0.14013600000000	0.00000000000000	-0.07753000000000	0.00000000000000	-9.95255500000000	0.00000000000000	0.00000000000000	-18.87284300000000	0.00000000000000	
19.82158900000000	-7.83127200000000	53.94985800000000	-15.34326400000000	0.34688700000000	0.00000000000000	0.08586300000000	-55.53021600000000	808.64714400000003	-44.57160300000000	0.13917800000000	0.00000000000000	-0.07750300000000	0.00000000000000	-11.05246400000000	0.00000000000000	0.00000000000000	-18.84877300000000	0.00000000000000	
19.82326200000000	-8.22001200000000	60.51892600000000	-16.58621000000000	0.35085700000000	0.00000000000000	0.08664000000000	-56.46052100000000	805.65745600000002	-44.25955100000000	0.13822500000000	0.00000000000000	-0.07747500000000	0.00000000000000	-12.04450400000000	0.00000000000000	0.00000000000000	-18.82495900000000	0.00000000000000	
19.82492500000000	-8.45680400000000	66.92663899999999	-17.63796500000000	0.35455000000000	0.00000000000000	0.08737400000000	-57.39726300000000	802.52437999999995	-43.93029100000000	0.13727800000000	0.00000000000000	-0.07744700000000	0.00000000000000	-12.91115800000000	0.00000000000000	0.00000000000000	-18.80125400000000	0.00000000000000	
19.82659400000000	-8.53806000000000	73.13193099999999	-18.48831000000000	0.35799900000000	0.00000000000000	0.08806800000000	-58.33926400000000	799.24589500000002	-43.58355000000000	0.13633700000000	0.00000000000000	-0.07741700000000	0.00000000000000	-13.64286700000000	0.00000000000000	0.00000000000000	-18.77749900000000	0.00000000000000	
19.82825600000000	-8.46671700000000	79.11963700000000	-19.13737400000000	0.36123000000000	0.00000000000000	0.08872900000000	-59.28526800000000	795.82003399999996	-43.21906900000000	0.13540200000000	0.00000000000000	-0.07738700000000	0.00000000000000	-14.23762300000000	0.00000000000000	0.00000000000000	-18.75352200000000	0.00000000000000	
19.82992800000000	-8.25115000000000	84.89779799999999	-19.59413100000000	0.36426600000000	0.00000000000000	0.08935800000000	-60.23394300000000	792.24489400000004	-42.83660900000000	0.13447400000000	0.00000000000000	-0.07735500000000	0.00000000000000	-14.70001500000000	0.00000000000000	0.00000000000000	-18.72914200000000	0.00000000000000	
19.83158900000000	-7.90382500000000	90.49352500000001	-19.87442400000000	0.36712700000000	0.00000000000000	0.08996100000000	-61.18388400000000	788.51864200000000	-42.43595000000000	0.13355400000000	0.00000000000000	-0.07732300000000	0.00000000000000	-15.03988100000000	0.00000000000000	0.00000000000000	-18.70416400000000	0.00000000000000	
19.83326200000000	-7.43984900000000	95.94802000000000	-19.99878100000000	0.36982900000000	0.00000000000000	0.09053800000000	-62.13361200000000	784.63952300000005	-42.01689700000000	0.13264100000000	0.00000000000000	-0.07728900000000	0.00000000000000	-15.27077700000000	0.00000000000000	0.00000000000000	-18.67838200000000	0.00000000000000	
19.83492300000000	-6.87556000000000	101.31130100000000	-19.99021500000000	0.37238600000000	0.00000000000000	0.09109200000000	-63.08157500000000	780.60586999999998	-41.57927900000000	0.13173600000000	0.00000000000000	-0.07725500000000	0.00000000000000	-15.40839100000000	0.00000000000000	0.00000000000000	-18.65158100000000	0.00000000000000	
19.83659500000000	-6.22725700000000	106.63712000000000	-19.87221000000000	0.37480900000000	0.00000000000000	0.09162600000000	-64.02615700000000	776.41611100000000	-41.12295300000000	0.13083900000000	0.00000000000000	-0.07721800000000	0.00000000000000	-15.46906300000000	0.00000000000000	0.00000000000000	-18.62353500000000	0.00000000000000	
19.83825900000000	-5.51015300000000	111.97844300000000	-19.66701600000000	0.37711000000000	0.00000000000000	0.09214200000000	-64.96567000000000	772.06877599999996	-40.64780500000000	0.12995100000000	0.00000000000000	-0.07718100000000	0.00000000000000	-15.46850400000000	0.00000000000000	0.00000000000000	-18.59401100000000	0.00000000000000	
19.83992900000000	-4.73758900000000	117.38374899999999	-19.39432500000000	0.37929600000000	0.00000000000000	0.09263900000000	-65.89836600000000	767.56250699999998	-40.15375300000000	0.12907100000000	0.00000000000000	-0.07714200000000	0.00000000000000	-15.42078400000000	0.00000000000000	0.00000000000000	-18.56276600000000	0.00000000000000	
19.84159700000000	-3.92053300000000	122.89430000000000	-19.07037800000000	0.38137500000000	0.00000000000000	0.09312100000000	-66.82243800000001	762.89606500000002	-39.64074900000000	0.12820100000000	0.00000000000000	-0.07710100000000	0.00000000000000	-15.33761900000000	0.00000000000000	0.00000000000000	-18.52954900000000	0.00000000000000	
19.84326000000000	-3.06734000000000	128.54239999999999	-18.70748800000000	0.38335400000000	0.00000000000000	0.09358700000000	-67.73601900000000	758.06833700000004	-39.10878400000000	0.12734100000000	0.00000000000000	-0.07705900000000	0.00000000000000	-15.22796700000000	0.00000000000000	0.00000000000000	-18.49410400000000	0.00000000000000	
19.84492600000000	-2.18375900000000	134.35062099999999	-18.31393700000000	0.38523800000000	0.00000000000000	0.09403900000000	-68.63719200000000	753.07834500000001	-38.55788300000000	0.12649000000000	0.00000000000000	-0.07701500000000	0.00000000000000	-15.09789600000000	0.00000000000000	0.00000000000000	-18.45616700000000	0.00000000000000	
19.84661900000000	-1.27312400000000	140.33185599999999	-17.89420200000000	0.38703200000000	0.00000000000000	0.09447800000000	-69.52399100000000	747.92525300000000	-37.98811400000000	0.12564800000000	0.00000000000000	-0.07696900000000	0.00000000000000	-14.95070800000000	0.00000000000000	0.00000000000000	-18.41547200000000	0.00000000000000	
19.84825800000000	-0.33670100000000	146.49006600000001	-17.44941300000000	0.38873900000000	0.00000000000000	0.09490400000000	-70.39440600000000	742.60837500000002	-37.39958800000000	0.12481700000000	0.00000000000000	-0.07692100000000	0.00000000000000	-14.78723700000000	0.00000000000000	0.00000000000000	-18.37174700000000	0.00000000000000	
19.84992900000000	0.62587800000000	152.82151700000000	-16.97798500000000	0.39036400000000	0.00000000000000	0.09531800000000	-71.24639100000000	737.12718099999995	-36.79245600000000	0.12399600000000	0.00000000000000	-0.07687100000000	0.00000000000000	-14.60628700000000	0.00000000000000	0.00000000000000	-18.32471800000000	0.00000000000000	
19.85158900000000	1.61614000000000	159.31634000000000	-16.47633600000000	0.39190900000000	0.00000000000000	0.09572100000000	-72.07786200000000	731.48130500000002	-36.16691900000000	0.12318500000000	0.00000000000000	-0.07682000000000	0.00000000000000	-14.40514800000000	0.00000000000000	0.00000000000000	-18.27410800000000	0.00000000000000	
19.85325800000000	2.63629200000000	165.96022900000000	-15.93961900000000	0.39337700000000	0.00000000000000	0.09611300000000	-72.88671100000001	725.67055500000004	-35.52322200000000	0.12238400000000	0.00000000000000	-0.07676600000000	0.00000000000000	-14.18012500000000	0.00000000000000	0.00000000000000	-18.21964000000000	0.00000000000000	
19.85492200000000	3.68878100000000	172.73612399999999	-15.36241600000000	0.39476900000000	0.00000000000000	0.09649400000000	-73.67080799999999	719.69491700000003	-34.86166000000000	0.12159400000000	0.00000000000000	-0.07671000000000	0.00000000000000	-13.92705400000000	0.00000000000000	0.00000000000000	-18.16103900000000	0.00000000000000	
